<svg width="16" height="15" viewBox="0 0 16 15" fill="none" xmlns="http://www.w3.org/2000/svg">
<path d="M13.6025 0.00487995C14.1067 0.05621 14.5 0.48232 14.5 1V2.79492L15.9189 6.10645L15.9541 6.20117C15.9843 6.29772 16 6.39843 16 6.5V8C16 8.5523 15.5523 9 15 9V15H13V9H10V15H1V9C0.44772 9 0 8.5523 0 8V6.5L0.00487995 6.39844C0.01514 6.29799 0.04115 6.19962 0.08105 6.10645L1.5 2.79492V1L1.50488 0.89746C1.55621 0.39333 1.98232 0 2.5 0H13.5L13.6025 0.00487995ZM3 13H8V9H3V13ZM2 6.7041V7H14V6.7041L12.627 3.5H3.37305L2 6.7041Z" fill="black"/>
</svg>
