<svg preserveAspectRatio="none" width="100%" height="100%" overflow="visible" style="display: block;" viewBox="0 0 20 12" fill="none" xmlns="http://www.w3.org/2000/svg">
<path id="Vector" d="M1.05 12L0 10.95L5.475 5.475C6.00835 4.94165 6.65835 4.675 7.425 4.675C8.19165 4.675 8.84165 4.94165 9.375 5.475L10.525 6.625C10.775 6.875 11.0709 7 11.4125 7C11.7542 7 12.05 6.875 12.3 6.625L17.425 1.5H14.5V0H20V5.5H18.5V2.575L13.35 7.7C12.8167 8.23335 12.1666 8.5 11.4 8.5C10.6333 8.5 9.98335 8.23335 9.45 7.7L8.275 6.525C8.04165 6.29165 7.75 6.175 7.4 6.175C7.05 6.175 6.75835 6.29165 6.525 6.525L1.05 12Z" fill="var(--fill-0, #00A627)"/>
</svg>
