<svg preserveAspectRatio="none" width="100%" height="100%" overflow="visible" style="display: block;" viewBox="0 0 15.1632 15.3882" fill="none" xmlns="http://www.w3.org/2000/svg">
<g id="recycle-bin-throw-2--remove-delete-empty-bin-trash-garbage">
<path id="Vector 1179" d="M7.5816 7.39387V11.9519" stroke="var(--stroke-0, #DC1D1D)" stroke-width="1.1232" stroke-linecap="round" stroke-linejoin="round"/>
<path id="Vector 1182" d="M9.73929 9.49878C9.0003 8.63158 8.54349 8.15109 7.71073 7.44751C7.62865 7.37816 7.50879 7.37574 7.42423 7.44206C6.59892 8.08932 6.13297 8.57307 5.37519 9.49878" stroke="var(--stroke-0, #DC1D1D)" stroke-width="1.1232" stroke-linecap="round" stroke-linejoin="round"/>
<path id="Vector 2540" d="M1.96644 6.4573L2.40611 12.6127C2.47814 13.6211 3.21386 14.4675 4.21592 14.6014C6.46316 14.9017 8.70172 14.9017 10.949 14.6014C11.951 14.4675 12.6867 13.6211 12.7588 12.6127L13.1984 6.4573" stroke="var(--stroke-0, #DC1D1D)" stroke-width="1.1232" stroke-linecap="round" stroke-linejoin="round"/>
<path id="Vector 195" d="M0.5616 3.73621H14.6016" stroke="var(--stroke-0, #DC1D1D)" stroke-width="1.1232" stroke-linecap="round" stroke-linejoin="round"/>
<path id="Vector 6" d="M4.77297 3.6504L5.3204 2.14496C5.66607 1.19438 6.56948 0.5616 7.58097 0.5616C8.59245 0.5616 9.49587 1.19438 9.84153 2.14496L10.389 3.6504" stroke="var(--stroke-0, #DC1D1D)" stroke-width="1.1232" stroke-linecap="round" stroke-linejoin="round"/>
</g>
</svg>
