<svg preserveAspectRatio="xMidYMid meet" width="100%" height="100%" overflow="visible" style="display: block;" viewBox="0 0 24 24" fill="none" xmlns="http://www.w3.org/2000/svg">
<path id="Vector" d="M11.9935 15.8182C13.0523 15.8182 13.9545 15.4477 14.7 14.7065C15.4455 13.9653 15.8182 13.0653 15.8182 12.0065C15.8182 10.9477 15.4477 10.0455 14.7065 9.3C13.9653 8.55453 13.0653 8.18182 12.0065 8.18182C10.9477 8.18182 10.0455 8.55235 9.3 9.29345C8.55453 10.0347 8.18182 10.9347 8.18182 11.9935C8.18182 13.0523 8.55235 13.9545 9.29345 14.7C10.0347 15.4455 10.9347 15.8182 11.9935 15.8182ZM12 17.4545C10.4909 17.4545 9.20455 16.9227 8.14091 15.8591C7.07727 14.7955 6.54545 13.5091 6.54545 12C6.54545 10.4909 7.07727 9.20455 8.14091 8.14091C9.20455 7.07727 10.4909 6.54545 12 6.54545C13.5091 6.54545 14.7955 7.07727 15.8591 8.14091C16.9227 9.20455 17.4545 10.4909 17.4545 12C17.4545 13.5091 16.9227 14.7955 15.8591 15.8591C14.7955 16.9227 13.5091 17.4545 12 17.4545ZM0.818182 12.8182C0.586364 12.8182 0.392089 12.7393 0.235364 12.5815C0.0784527 12.4238 0 12.2284 0 11.9951C0 11.762 0.0784527 11.5682 0.235364 11.4136C0.392089 11.2591 0.586364 11.1818 0.818182 11.1818H3.54545C3.77727 11.1818 3.97163 11.2607 4.12855 11.4185C4.28527 11.5762 4.36364 11.7716 4.36364 12.0049C4.36364 12.238 4.28527 12.4318 4.12855 12.5864C3.97163 12.7409 3.77727 12.8182 3.54545 12.8182H0.818182ZM20.4545 12.8182C20.2227 12.8182 20.0284 12.7393 19.8717 12.5815C19.7148 12.4238 19.6364 12.2284 19.6364 11.9951C19.6364 11.762 19.7148 11.5682 19.8717 11.4136C20.0284 11.2591 20.2227 11.1818 20.4545 11.1818H23.1818C23.4136 11.1818 23.608 11.2607 23.7649 11.4185C23.9216 11.5762 24 11.7716 24 12.0049C24 12.238 23.9216 12.4318 23.7649 12.5864C23.608 12.7409 23.4136 12.8182 23.1818 12.8182H20.4545ZM11.9951 4.36364C11.762 4.36364 11.5682 4.28518 11.4136 4.12827C11.2591 3.97155 11.1818 3.77727 11.1818 3.54545V0.818182C11.1818 0.586364 11.2607 0.392002 11.4185 0.235091C11.5762 0.0783655 11.7716 0 12.0049 0C12.238 0 12.4318 0.0783655 12.5864 0.235091C12.7409 0.392002 12.8182 0.586364 12.8182 0.818182V3.54545C12.8182 3.77727 12.7393 3.97155 12.5815 4.12827C12.4238 4.28518 12.2284 4.36364 11.9951 4.36364ZM11.9951 24C11.762 24 11.5682 23.9216 11.4136 23.7646C11.2591 23.6079 11.1818 23.4136 11.1818 23.1818V20.4545C11.1818 20.2227 11.2607 20.0284 11.4185 19.8715C11.5762 19.7147 11.7716 19.6364 12.0049 19.6364C12.238 19.6364 12.4318 19.7147 12.5864 19.8715C12.7409 20.0284 12.8182 20.2227 12.8182 20.4545V23.1818C12.8182 23.4136 12.7393 23.6079 12.5815 23.7646C12.4238 23.9216 12.2284 24 11.9951 24ZM5.45455 6.6L3.9 5.07273C3.73636 4.90909 3.65791 4.71273 3.66464 4.48364C3.67136 4.25437 3.74891 4.05891 3.89727 3.89727C4.05891 3.73545 4.25437 3.65455 4.48364 3.65455C4.71273 3.65455 4.90909 3.73636 5.07273 3.9L6.6 5.45455C6.74547 5.61818 6.81818 5.80909 6.81818 6.02727C6.81818 6.24545 6.74547 6.43184 6.6 6.58636C6.45453 6.74089 6.2682 6.81818 6.04091 6.81818C5.81362 6.81818 5.61818 6.74547 5.45455 6.6ZM18.9273 20.1L17.4 18.5455C17.2545 18.3818 17.1818 18.1875 17.1818 17.9624C17.1818 17.7375 17.2591 17.55 17.4136 17.4C17.5682 17.2364 17.7545 17.1545 17.9727 17.1545C18.1909 17.1545 18.3818 17.2364 18.5455 17.4L20.1 18.9273C20.2636 19.0909 20.3421 19.2873 20.3354 19.5164C20.3287 19.7456 20.2511 19.9411 20.1027 20.1027C19.9411 20.2646 19.7456 20.3455 19.5164 20.3455C19.2873 20.3455 19.0909 20.2636 18.9273 20.1ZM17.4 6.6C17.2364 6.43636 17.1545 6.24545 17.1545 6.02727C17.1545 5.80909 17.2364 5.61818 17.4 5.45455L18.9273 3.9C19.0909 3.73636 19.2873 3.65791 19.5164 3.66464C19.7456 3.67136 19.9411 3.74891 20.1027 3.89727C20.2646 4.05891 20.3455 4.25437 20.3455 4.48364C20.3455 4.71273 20.2636 4.90909 20.1 5.07273L18.5455 6.6C18.4 6.74547 18.2149 6.81818 17.9902 6.81818C17.7653 6.81818 17.5685 6.74547 17.4 6.6ZM3.89727 20.1027C3.73545 19.9411 3.65455 19.7456 3.65455 19.5164C3.65455 19.2873 3.73636 19.0909 3.9 18.9273L5.45455 17.4C5.61453 17.2364 5.80456 17.1545 6.02455 17.1545C6.24453 17.1545 6.43282 17.2364 6.58936 17.4C6.76009 17.5636 6.84545 17.7545 6.84545 17.9727C6.84545 18.1909 6.76364 18.3818 6.6 18.5455L5.07273 20.1C4.90909 20.2636 4.71273 20.3421 4.48364 20.3354C4.25437 20.3287 4.05891 20.2511 3.89727 20.1027Z" fill="var(--fill-0, black)"/>
</svg>

