<svg preserveAspectRatio="none" width="100%" height="100%" overflow="visible" style="display: block;" viewBox="0 0 1746 413.506" fill="none" xmlns="http://www.w3.org/2000/svg">
<g id="Vector">
<path d="M0 237.682V114.407C132.582 106.967 182.08 159.572 243.955 157.447V277.534C68.058 272.22 86.6198 235.025 0 237.682Z" fill="var(--fill-0, #2969FF)"/>
<path d="M514.531 237.682V114.407C374.095 106.967 321.665 159.572 256.126 157.447V277.534C442.442 272.22 422.78 235.025 514.531 237.682Z" fill="var(--fill-0, #2969FF)"/>
<path d="M768.784 161.624V89.6641C636.201 85.3212 586.703 116.028 524.829 114.788V184.887C700.726 181.786 682.164 160.074 768.784 161.624Z" fill="var(--fill-0, #2969FF)"/>
<path d="M768.784 208.668V252.644C636.201 255.298 586.703 236.532 524.829 237.29V194.452C700.726 196.347 682.164 209.616 768.784 208.668Z" fill="var(--fill-0, #2969FF)"/>
<path d="M781.63 89.5904V361.959C950.635 378.396 1013.73 262.169 1092.6 266.864V1.54041C868.385 13.2804 892.046 95.4604 781.63 89.5904Z" fill="var(--fill-0, #2969FF)"/>
<path d="M1107.74 269.086V1.56551C1276.75 -14.5794 1339.85 99.5786 1418.72 94.9676V355.569C1194.5 344.038 1218.16 263.321 1107.74 269.086Z" fill="var(--fill-0, #2969FF)"/>
<path d="M1435.03 94.7973V355.517C1604.03 371.251 1667.13 259.995 1746 264.489V10.513C1521.78 21.7509 1545.44 100.416 1435.03 94.7973Z" fill="var(--fill-0, #2969FF)"/>
<path d="M770.579 361.407V300.103C282.575 372.638 450.562 372.638 3.3362 300.103V361.407C440.811 441.289 354.823 419.617 770.579 361.407Z" fill="var(--fill-0, #2969FF)"/>
</g>
</svg>

