<svg preserveAspectRatio="xMidYMid meet" width="80" height="85.6243" overflow="visible" style="display: block;" viewBox="0 0 80 85.6243" fill="none" xmlns="http://www.w3.org/2000/svg">
<path id="Union" d="M76.9018 10.1784C78.3941 10.624 79.1403 10.8468 79.5701 11.4238C80 12.0007 80 12.7795 80 14.3369V27.1497C80 29.8176 80 31.1516 79.1265 31.8024C78.2529 32.4532 76.9747 32.0715 74.4183 31.3082L45.5817 22.6974C43.0253 21.934 41.7471 21.5523 40.8735 22.2031C40 22.8539 40 24.1879 40 26.8559V39.5065C40 41.064 40 41.8427 40.4299 42.4196C40.8597 42.9966 41.6059 43.2194 43.0982 43.665L76.9018 53.7589C78.3941 54.2045 79.1403 54.4273 79.5701 55.0043C80 55.5812 80 56.36 80 57.9174V70.7302C80 73.3981 80 74.7321 79.1265 75.3829C78.2529 76.0337 76.9747 75.6521 74.4183 74.8887L45.5817 66.2779C43.0253 65.5145 41.7471 65.1328 40.8735 65.7836C40 66.4344 40 67.7684 40 70.4364V80.6396C40 83.3076 40 84.6416 39.1265 85.2924C38.2529 85.9432 36.9747 85.5615 34.4183 84.7982L3.09821 75.4459C1.60587 75.0003 0.859703 74.7775 0.429851 74.2005C0 73.6235 0 72.8448 0 71.2874V58.4746C0 55.8066 0 54.4727 0.873541 53.8218C1.74708 53.171 3.0253 53.5527 5.58173 54.3161L34.4183 62.9269C36.9747 63.6903 38.2529 64.0719 39.1265 63.4211C40 62.7703 40 61.4363 40 58.7684V46.1179C40 44.5605 40 43.7817 39.5701 43.2048C39.1403 42.6278 38.3941 42.405 36.9018 41.9594L3.09821 31.8655C1.60587 31.4199 0.859703 31.1971 0.429851 30.6201C0 30.0432 0 29.2645 0 27.707V14.8942C0 12.2263 0 10.8923 0.873538 10.2415C1.74708 9.59068 3.02529 9.97236 5.58171 10.7357L34.4183 19.3464C36.9747 20.1098 38.2529 20.4914 39.1265 19.8406C40 19.1898 40 17.8558 40 15.1879V4.98462C40 2.31666 40 0.98268 40.8735 0.33187C41.7471 -0.318939 43.0253 0.0627399 45.5817 0.826097L76.9018 10.1784Z" fill="black"/>
</svg>

