<svg width="16" height="15" viewBox="0 0 16 15" fill="none" xmlns="http://www.w3.org/2000/svg">
<path d="M14.7692 2.46143H11.6923V1.84604C11.6923 1.35641 11.4978 0.886834 11.1516 0.540613C10.8054 0.194398 10.3358 -0.000110605 9.84615 -0.000110605H6.15385C5.66422 -0.000110605 5.19464 0.194398 4.84842 0.540613C4.5022 0.886834 4.30769 1.35641 4.30769 1.84604V2.46143H1.23077C0.904347 2.46143 0.5913 2.5911 0.360485 2.82191C0.12967 3.05273 3.47754e-07 3.36578 3.47754e-07 3.6922V13.5384C3.47754e-07 13.8647 0.12967 14.1778 0.360485 14.4087C0.5913 14.6394 0.904347 14.7691 1.23077 14.7691H14.7692C15.0956 14.7691 15.4087 14.6394 15.6395 14.4087C15.8703 14.1778 16 13.8647 16 13.5384V3.6922C16 3.36578 15.8703 3.05273 15.6395 2.82191C15.4087 2.5911 15.0956 2.46143 14.7692 2.46143ZM5.53846 1.84604C5.53846 1.68284 5.6033 1.5263 5.7187 1.4109C5.83411 1.2955 5.99062 1.23066 6.15385 1.23066H9.84615C10.0094 1.23066 10.1659 1.2955 10.2813 1.4109C10.3967 1.5263 10.4615 1.68284 10.4615 1.84604V2.46143H5.53846V1.84604ZM11.6923 3.6922H14.7692V13.5384H1.23077V3.6922H11.6923Z" fill="white"/>
</svg>
