<svg preserveAspectRatio="none" width="100%" height="100%" overflow="visible" style="display: block;" viewBox="0 0 630.328 605.399" fill="none" xmlns="http://www.w3.org/2000/svg">
<g id="building-outline">
<path id="Vector" d="M250.725 0.492052L256.837 0.661829V34.9568L248.348 34.6173L249.367 6.0947H250.555L250.725 0.492052Z" stroke="var(--stroke-0, #DFDFDD)" stroke-width="0.947139"/>
<path id="Vector_2" d="M464.305 52.783H433.066L433.235 48.199H435.273L435.612 34.447H435.103L435.442 16.6204H436.122L436.291 10.6782L435.442 9.32L441.385 4.05691L443.082 5.75468L450.043 6.09424V4.73602L457.344 4.90579V6.60357L512.691 7.79201V9.48978L525.594 9.82934L524.745 49.0479H524.915V52.783H493.506L494.016 39.5404L491.978 37.3333L467.191 36.3146L464.814 38.1821L464.305 52.783Z" stroke="var(--stroke-0, #DFDFDD)" stroke-width="0.947139"/>
<path id="Vector_3" d="M274.494 7.62176L319.485 9.65909V12.036L318.975 21.5435L321.183 21.7133L320.843 29.8626L318.806 29.6928L318.296 41.5772L273.475 39.7097L273.984 28.1648H271.947L272.287 19.8457H273.984L274.494 7.62176Z" stroke="var(--stroke-0, #DFDFDD)" stroke-width="0.947139"/>
<path id="Vector_4" d="M250.725 0.492052L263.628 1.00138L263.458 4.05738H264.647L264.137 18.4884L259.723 18.3187L259.214 35.1266L248.348 34.6173L249.367 6.0947H250.555L250.725 0.492052Z" stroke="var(--stroke-0, #DFDFDD)" stroke-width="0.947139"/>
<path id="Vector_5" d="M214.732 340.216L256.837 342.593V356.854L242.236 356.005L240.708 386.904L212.355 385.376L214.732 340.216Z" stroke="var(--stroke-0, #DFDFDD)" stroke-width="0.947139"/>
<path id="Vector_6" d="M218.298 261.269L230.182 261.948L230.013 263.646L256.837 265.004V321.88L227.466 320.352L227.296 323.577L215.072 323.068L218.298 261.269Z" stroke="var(--stroke-0, #DFDFDD)" stroke-width="0.947139"/>
<path id="Vector_7" d="M219.655 210.507L233.407 211.186L233.237 213.223L237.142 213.393V212.035L243.763 212.374L243.594 213.902L249.366 214.242V212.544L256.157 212.884L255.987 214.242H256.836V236.992L218.297 234.955L219.655 210.507Z" stroke="var(--stroke-0, #DFDFDD)" stroke-width="0.947139"/>
<path id="Vector_8" d="M64.1395 411.522L118.298 413.559L118.129 419.671L115.242 419.502L114.394 443.61H116.77L116.431 449.892L98.4345 449.213V448.533L98.774 442.761L101.321 442.931L101.83 432.744L77.5519 431.895L77.0425 442.591L79.5892 442.761L79.4194 447.515L79.2497 448.364L64.3092 447.854L61.0835 447.685L61.2533 441.233L64.3092 441.403H64.6488L65.4977 416.785L64.1395 416.615H62.951L63.1208 411.522H64.1395Z" stroke="var(--stroke-0, #DFDFDD)" stroke-width="0.947139"/>
<path id="Vector_9" d="M4.20867 408.806L57.0094 410.843L56.6699 416.786L53.7836 416.616L52.765 441.403H55.3116L55.1419 447.515L37.1455 446.836V445.478L37.3152 440.554L40.3712 440.724L40.8806 430.028L15.5837 429.01L15.0744 439.875L18.47 440.045L18.1304 445.478L2.5109 444.799L3.19001 428.67L0.473569 428.5V424.595H0.813124L3.52956 424.765L4.20867 408.806Z" stroke="var(--stroke-0, #DFDFDD)" stroke-width="0.947139"/>
<path id="Vector_10" d="M233.068 419.163L245.462 419.672L244.273 443.441L252.083 443.781L251.234 462.286L256.837 462.456V476.718L246.99 476.378L246.82 481.981L232.389 481.471L232.559 476.038L214.393 475.359L214.902 460.758L229.673 461.268L230.352 442.762H228.145V440.555L213.204 439.876L214.053 420.861L232.898 421.71L233.068 419.163Z" stroke="var(--stroke-0, #DFDFDD)" stroke-width="0.947139"/>
<path id="Vector_11" d="M63.9703 554.644L71.4405 555.154L71.1009 563.473L75.8547 563.303L76.0245 559.228L82.1365 559.737L81.9667 565.68H80.948L80.7783 571.282H81.6271L81.4574 580.111L80.2689 579.941V586.562H79.42V590.467L64.8192 590.297H64.1401L64.4796 577.225H64.8192L68.7241 577.394V570.603L68.3845 564.831L63.461 564.491L63.9703 554.644Z" stroke="var(--stroke-0, #DFDFDD)" stroke-width="0.947139"/>
<path id="Vector_12" d="M36.4657 531.046L37.1448 531.216H37.9937V531.895L39.0124 532.065L39.1822 531.216H40.7101V532.065H41.2195V533.593L41.8986 533.762H42.2381V535.46H41.8986L40.7101 535.29L40.5404 539.195V539.535L35.4471 539.195L35.7866 532.234H36.4657V531.046Z" stroke="var(--stroke-0, #DFDFDD)" stroke-width="0.947139"/>
<path id="Vector_13" d="M126.957 413.899L177.041 416.276V417.295L175.513 452.609L159.384 451.93L159.724 446.497H161.422L161.931 435.971L138.502 434.952L138.162 444.799L141.728 444.969L141.388 451.081L125.259 450.232L126.957 413.899Z" stroke="var(--stroke-0, #DFDFDD)" stroke-width="0.947139"/>
<path id="Vector_14" d="M60.0643 197.434L102.848 199.301L99.6225 274.513V275.362H97.9247L88.5869 274.852L88.7567 269.419L68.2137 268.401L67.8741 274.173L63.6297 274.003L56.6688 273.664L56.8386 270.947L57.0084 268.91L60.0643 197.434Z" stroke="var(--stroke-0, #DFDFDD)" stroke-width="0.947139"/>
<path id="Vector_15" d="M232.899 84.8713L256.837 85.7202V129.013L231.031 127.825L231.54 110.677L228.145 110.508L226.617 109.829L226.277 108.301L226.617 106.433L227.805 106.094L232.05 106.433L232.899 84.8713Z" stroke="var(--stroke-0, #DFDFDD)" stroke-width="0.947139"/>
<path id="Vector_16" d="M230.012 561.096L242.915 561.266L242.236 595.9L231.371 595.731L231.71 583.507L227.975 583.337L228.145 574.339H229.673L230.012 561.096Z" stroke="var(--stroke-0, #DFDFDD)" stroke-width="0.947139"/>
<path id="Vector_17" d="M230.691 48.029L256.837 49.2174V65.8556L229.673 64.4974V62.4601L226.617 62.2903L227.126 50.7454L230.521 50.9152L230.691 48.029Z" stroke="var(--stroke-0, #DFDFDD)" stroke-width="0.947139"/>
<path id="Vector_18" d="M138.672 104.056L149.708 115.431L151.575 114.073L163.799 128.164L150.217 139.2L129.334 112.035L138.672 104.056Z" stroke="var(--stroke-0, #DFDFDD)" stroke-width="0.947139"/>
<path id="Vector_19" d="M3.52943 346.328L18.1303 346.837L54.1231 348.026L92.6625 349.384L91.4741 380.963L2.51076 378.077L3.52943 346.328Z" stroke="var(--stroke-0, #DFDFDD)" stroke-width="0.947139"/>
<path id="Vector_20" d="M54.9719 318.993L64.4794 319.163L94.1904 320.012L92.6625 349.383L54.123 348.025L54.9719 318.993Z" stroke="var(--stroke-0, #DFDFDD)" stroke-width="0.947139"/>
<path id="Vector_21" d="M226.107 539.874L239.18 540.723L238.84 546.835L231.2 546.326V548.193L225.598 548.024L226.107 539.874Z" stroke="var(--stroke-0, #DFDFDD)" stroke-width="0.947139"/>
<path id="Vector_22" d="M26.2792 197.603L40.5405 198.112L43.0872 201.168L42.2383 226.126L25.4303 225.616L26.2792 197.603Z" stroke="var(--stroke-0, #DFDFDD)" stroke-width="0.947139"/>
<path id="Vector_23" d="M230.012 158.215L238.161 158.554L237.652 177.06L229.503 176.89L230.012 158.554V158.215Z" stroke="var(--stroke-0, #DFDFDD)" stroke-width="0.947139"/>
<path id="Vector_24" d="M163.29 554.644L175.514 554.984L175.005 570.094L162.95 569.754L163.29 554.644Z" stroke="var(--stroke-0, #DFDFDD)" stroke-width="0.947139"/>
<path id="Vector_25" d="M116.431 235.803L124.241 236.142L141.897 236.652L141.558 245.48L116.091 244.631L116.431 235.803Z" stroke="var(--stroke-0, #DFDFDD)" stroke-width="0.947139"/>
<path id="Vector_26" d="M7.94338 224.937L42.2384 226.126L41.7291 243.613L7.43405 242.594L7.94338 224.937Z" stroke="var(--stroke-0, #DFDFDD)" stroke-width="0.947139"/>
<path id="Vector_27" d="M19.1482 317.806L54.9712 318.994L54.1223 348.026L18.1295 346.838L19.1482 317.806Z" stroke="var(--stroke-0, #DFDFDD)" stroke-width="0.947139"/>
<path id="Vector_28" d="M116.092 244.631L141.558 245.48L141.049 264.156L115.413 263.307L116.092 244.631Z" stroke="var(--stroke-0, #DFDFDD)" stroke-width="0.947139"/>
<path id="Vector_29" d="M115.413 263.306L141.049 264.155L140.54 278.586L115.073 277.737L115.413 263.306Z" stroke="var(--stroke-0, #DFDFDD)" stroke-width="0.947139"/>
<path id="Vector_30" d="M7.43458 242.594L41.7296 243.613L40.8807 270.438L6.41592 269.249L7.43458 242.594Z" stroke="var(--stroke-0, #DFDFDD)" stroke-width="0.947139"/>
<path id="Vector_31" d="M125.429 203.206L143.085 203.715L141.897 236.652L124.24 236.143L125.429 203.206Z" stroke="var(--stroke-0, #DFDFDD)" stroke-width="0.947139"/>
<path id="Vector_32" d="M113.885 310.335L139.521 311.184L138.503 340.046L113.036 339.197L113.885 310.335Z" stroke="var(--stroke-0, #DFDFDD)" stroke-width="0.947139"/>
<path id="Vector_33" d="M113.036 339.198L138.502 340.046L137.993 355.496L112.526 354.647L113.036 339.198Z" stroke="var(--stroke-0, #DFDFDD)" stroke-width="0.947139"/>
<path id="Vector_34" d="M91.3043 482.15L173.646 485.546L171.949 548.194L88.5879 544.629L91.3043 482.15Z" stroke="var(--stroke-0, #DFDFDD)" stroke-width="0.947139"/>
<path id="Vector_35" d="M67.8753 289.792L94.5303 290.641L94.1907 319.673L66.8566 318.993L67.8753 289.792Z" stroke="var(--stroke-0, #DFDFDD)" stroke-width="0.947139"/>
<path id="Vector_36" d="M117.45 202.866L125.43 203.205L124.241 236.142L116.432 235.802L117.45 202.866Z" stroke="var(--stroke-0, #DFDFDD)" stroke-width="0.947139"/>
<path id="Vector_37" d="M148.859 206.092L159.046 206.432L158.367 222.051L148.35 221.712L148.859 206.092Z" stroke="var(--stroke-0, #DFDFDD)" stroke-width="0.947139"/>
<path id="Vector_38" d="M178.739 203.715L188.247 204.054L187.398 226.295L177.89 226.125L178.739 203.715Z" stroke="var(--stroke-0, #DFDFDD)" stroke-width="0.947139"/>
<path id="Vector_39" d="M221.523 139.03L231.88 139.54L231.031 156.348L220.674 155.838L221.523 139.03Z" stroke="var(--stroke-0, #DFDFDD)" stroke-width="0.947139"/>
<path id="Vector_40" d="M60.2349 439.026L60.0651 450.062H57.0091L57.1789 439.026H60.2349Z" stroke="var(--stroke-0, #DFDFDD)" stroke-width="0.947139"/>
<path id="Vector_41" d="M106.754 553.965L117.79 554.645L117.45 560.077L106.415 559.568L106.754 553.965Z" stroke="var(--stroke-0, #DFDFDD)" stroke-width="0.947139"/>
<path id="Vector_42" d="M114.903 282.492L140.37 283.171L140.03 292.339L114.564 291.49L114.903 282.492Z" stroke="var(--stroke-0, #DFDFDD)" stroke-width="0.947139"/>
<path id="Vector_43" d="M114.563 291.49L140.03 292.339L139.86 301.677L114.223 300.828L114.563 291.49Z" stroke="var(--stroke-0, #DFDFDD)" stroke-width="0.947139"/>
<path id="Vector_44" d="M114.224 300.827L139.861 301.676L139.521 311.184L113.885 310.335L114.224 300.827Z" stroke="var(--stroke-0, #DFDFDD)" stroke-width="0.947139"/>
<path id="Vector_45" d="M119.997 411.353L122.544 411.523L122.204 419.842L119.827 419.672L119.997 411.353Z" stroke="var(--stroke-0, #DFDFDD)" stroke-width="0.947139"/>
<path id="Vector_46" d="M118.299 441.912L121.355 442.082L121.015 452.778L117.959 452.608L118.299 441.912Z" stroke="var(--stroke-0, #DFDFDD)" stroke-width="0.947139"/>
<path id="Vector_47" d="M58.3668 408.637L61.5926 408.807L61.253 417.126L58.0272 416.956L58.3668 408.637Z" stroke="var(--stroke-0, #DFDFDD)" stroke-width="0.947139"/>
<path id="Vector_48" d="M524.915 41.578L524.746 49.0482H524.915L524.576 66.3655H522.878L522.538 88.4366H523.387L522.878 108.64H520.331L519.652 142.765H520.671L520.162 160.083H518.464L517.954 178.588H518.803L518.634 192.001L485.697 191.322L485.867 176.721L490.111 176.891L490.281 172.307L502.505 172.646L504.033 106.773L505.051 106.942L505.221 105.075H501.147L501.316 96.7556L471.096 96.0765L470.926 99.6419L455.307 99.3023V103.717L447.157 103.547L446.988 113.394L445.799 171.118L458.363 171.288L458.193 175.702L462.437 175.872L462.098 189.284L428.991 188.605L429.331 176.211H428.142L428.652 152.443H429.5L430.18 125.618H428.652L428.821 119.845L430.689 120.185L430.859 113.224L433.236 48.1993H435.273L435.443 41.578H464.644L463.626 76.8917L465.493 78.929L490.451 79.7779L492.658 77.7406L494.016 41.578H524.915Z" stroke="var(--stroke-0, #DFDFDD)" stroke-width="0.947139"/>
<path id="Vector_49" d="M422.879 512.879L438.498 513.728V514.407L445.629 514.917L445.459 519.501L446.478 519.67L446.138 525.782H445.289L444.61 535.29H445.459L444.78 547.344L442.743 547.174L441.894 561.605L441.554 568.736H443.591L442.403 590.807H443.252L442.912 596.58H442.233L441.894 601.673L435.612 601.333L435.442 602.012L426.104 601.503L419.143 601.164L419.313 600.315L412.183 599.975L412.522 595.9H411.503L411.843 589.279H412.692L413.201 579.432H414.22L414.39 573.66L418.464 573.999V573.32L418.634 568.906L414.559 568.736L415.918 544.967L419.653 545.137L419.823 540.553L415.578 540.383L415.918 534.611H414.899L415.578 524.424H414.559L414.899 518.312L415.578 518.482L415.918 513.728L422.879 514.068V512.879Z" stroke="var(--stroke-0, #DFDFDD)" stroke-width="0.947139"/>
<path id="Vector_50" d="M272.627 212.544L349.536 216.619L346.48 272.985L333.746 272.306L333.577 276.041L317.618 275.192L317.787 271.796L307.601 271.287L307.94 265.345L291.302 264.496L291.642 259.233L282.643 258.723L279.927 311.354L268.212 310.845L266.515 343.103L276.362 343.612L275.683 357.873L245.632 356.176V341.914L258.026 342.593L259.044 322.05L245.632 321.371V264.496L258.535 265.175L259.893 237.162L245.632 236.483V214.072L249.367 214.242V212.544L256.158 212.884L255.988 214.242L261.931 214.581L262.1 213.053L268.722 213.393V215.26L272.457 215.43L272.627 212.544Z" stroke="var(--stroke-0, #DFDFDD)" stroke-width="0.947139"/>
<path id="Vector_51" d="M446.139 426.802V427.821L454.798 428.67V427.312L461.079 427.481L461.249 429.179H474.831L477.717 429.519V427.991L483.999 428.5L484.169 429.689L487.565 429.858V428.5L494.356 429.009V430.368H497.751V428.67H503.184V434.273L500.977 434.442L500.807 443.61L497.581 443.44L487.565 443.101V441.064L479.925 440.894L473.134 440.554L473.303 437.668L464.305 436.989L464.475 440.894L456.835 440.215L456.665 448.704L416.088 447.006L416.428 434.103H418.295L418.126 431.896L421.351 429.179H423.049L423.219 427.651H431.878L440.366 427.991V426.802H446.139Z" stroke="var(--stroke-0, #DFDFDD)" stroke-width="0.947139"/>
<path id="Vector_52" d="M473.812 530.536L496.901 531.555L496.052 549.721H493.675L493.166 554.984H495.543L494.185 572.471L495.713 572.302L495.373 581.979L491.978 581.809L491.638 586.733L495.203 586.902L494.694 604.899L470.586 603.541L471.265 586.223L474.66 586.393L475 580.79H471.604L471.774 570.943L473.642 571.283L473.812 563.813L472.284 563.643L472.453 553.796L476.188 554.135L476.358 548.533H472.963L473.812 530.536Z" stroke="var(--stroke-0, #DFDFDD)" stroke-width="0.947139"/>
<path id="Vector_53" d="M629.159 41.578L626.273 95.9068L629.838 96.0765L629.498 105.754L626.612 105.584L626.442 111.526L562.097 108.64L562.436 102.868L558.871 102.698L559.55 91.153L562.606 91.3228L562.776 85.7201L592.317 87.0783L595.034 84.0224L593.166 80.7966L592.147 81.6455L587.903 76.3824L593.166 71.9682L597.58 76.8917L596.901 77.7406L598.259 79.6081H604.371L606.069 41.578H629.159Z" stroke="var(--stroke-0, #DFDFDD)" stroke-width="0.947139"/>
<path id="Vector_54" d="M424.067 461.777L437.989 462.286V463.135L442.743 463.305L441.894 480.962L438.668 480.792L438.498 486.055H441.894L441.215 503.712L436.121 503.542V504.391L422.2 503.881V503.033L417.446 502.863L418.125 485.715H421.86L422.03 480.113H418.295L419.144 462.456L424.067 462.626V461.777Z" stroke="var(--stroke-0, #DFDFDD)" stroke-width="0.947139"/>
<path id="Vector_55" d="M575 159.913L591.298 160.592L590.45 177.23L588.752 177.06L588.073 193.698L575.17 193.019V194.377L542.403 192.849L543.251 176.042L552.419 176.381L552.589 175.532L568.718 176.211V177.06L574.151 177.4L575 159.913Z" stroke="var(--stroke-0, #DFDFDD)" stroke-width="0.947139"/>
<path id="Vector_56" d="M366.853 495.223L375.002 495.562V497.43H377.549L377.039 510.163L373.983 509.993L373.814 512.03L366.513 511.691L366.683 511.182L352.761 510.672L352.931 504.051H351.743L351.912 502.014L353.271 502.183L353.44 497.769L366.683 498.109L366.853 495.223Z" stroke="var(--stroke-0, #DFDFDD)" stroke-width="0.947139"/>
<path id="Vector_57" d="M431.369 265.344L438.839 265.513L438.669 269.588L441.725 269.758V267.381L448.177 267.551L447.837 278.416L440.537 278.247V276.888H437.99L437.82 280.793L431.029 280.454V279.605L427.634 279.435L428.143 266.702H431.369V265.344Z" stroke="var(--stroke-0, #DFDFDD)" stroke-width="0.947139"/>
<path id="Vector_58" d="M430.18 285.717L437.82 286.057L437.65 290.641L440.366 290.811V288.434L447.837 288.773L447.157 300.488L439.348 299.979L439.517 298.281L437.141 298.111L436.801 301.337L428.821 300.997L428.991 299.979L426.105 299.809L426.784 286.736L430.18 286.906V285.717Z" stroke="var(--stroke-0, #DFDFDD)" stroke-width="0.947139"/>
<path id="Vector_59" d="M547.666 355.835L560.739 356.854L559.72 370.776H560.569L558.871 392.677L554.797 392.337V393.356L550.722 393.017V392.337L546.308 391.998L547.157 381.132L547.836 371.625L546.477 371.455L547.496 357.024L547.666 355.835Z" stroke="var(--stroke-0, #DFDFDD)" stroke-width="0.947139"/>
<path id="Vector_60" d="M552.079 268.74L570.076 268.91V276.041L565.322 275.871V281.813L563.624 281.643V282.662H558.701L558.871 281.473H551.74L551.91 280.285L549.363 280.115V275.531L549.533 269.08H552.079V268.74Z" stroke="var(--stroke-0, #DFDFDD)" stroke-width="0.947139"/>
<path id="Vector_61" d="M479.924 440.893L487.564 441.063V443.101L497.581 443.44L497.411 450.91H498.599L497.581 468.567L496.392 468.397V477.735L478.056 476.716V471.963L473.303 471.453L473.472 463.134L479.245 463.644L479.924 440.893Z" stroke="var(--stroke-0, #DFDFDD)" stroke-width="0.947139"/>
<path id="Vector_62" d="M353.78 473.321L374.493 474.34V476.207H377.039L376.36 490.469H373.644L373.474 492.166L361.759 491.148L362.099 484.017L360.062 483.847L359.892 487.073L356.496 486.903L356.666 483.847L353.44 483.678L353.78 473.321Z" stroke="var(--stroke-0, #DFDFDD)" stroke-width="0.947139"/>
<path id="Vector_63" d="M245.632 85.3809L260.063 85.8902L259.554 99.3026L259.214 110.338V111.696L262.61 111.866L263.628 112.375L263.968 114.413L263.628 115.431L262.61 116.111H258.875L258.026 129.014L245.632 128.504V85.3809Z" stroke="var(--stroke-0, #DFDFDD)" stroke-width="0.947139"/>
<path id="Vector_64" d="M541.213 242.424L578.734 243.952L578.055 259.402L562.266 258.723L562.436 254.648H560.908L560.568 262.458L546.816 261.948L546.986 260.76H545.288L545.628 250.234L540.874 250.064L541.213 242.424Z" stroke="var(--stroke-0, #DFDFDD)" stroke-width="0.947139"/>
<path id="Vector_65" d="M469.058 310.675L483.999 311.524L483.15 329.011L509.296 330.369L508.786 342.084L508.447 350.233L482.471 348.875L481.792 358.382L467.7 357.364L467.53 341.235L469.058 310.675Z" stroke="var(--stroke-0, #DFDFDD)" stroke-width="0.947139"/>
<path id="Vector_66" d="M358.194 514.407L372.625 514.577V515.256L376.869 515.426L376.699 524.764L373.813 524.594V525.273L357.515 525.103V523.915H355.817V521.708H358.024L358.194 514.407Z" stroke="var(--stroke-0, #DFDFDD)" stroke-width="0.947139"/>
<path id="Vector_67" d="M556.663 225.786L572.622 227.484V227.993L575.339 228.163L574.999 230.54L572.283 230.37L571.434 238.01L561.926 236.991L561.756 238.35L552.588 237.331L553.607 227.484L556.493 227.654L556.663 225.786Z" stroke="var(--stroke-0, #DFDFDD)" stroke-width="0.947139"/>
<path id="Vector_68" d="M431.707 248.876L451.571 249.555L451.232 256.686V257.365L446.138 257.195L445.969 261.27L431.198 260.591V259.402L428.821 259.232L429.161 249.725L431.707 249.895V248.876Z" stroke="var(--stroke-0, #DFDFDD)" stroke-width="0.947139"/>
<path id="Vector_69" d="M458.193 220.352L471.096 221.032L470.926 224.597L472.454 224.767L471.945 231.728L468.549 231.558L468.21 239.367L460.23 238.858L460.57 231.218L457.514 231.048L457.853 224.257L458.193 220.352Z" stroke="var(--stroke-0, #DFDFDD)" stroke-width="0.947139"/>
<path id="Vector_70" d="M299.79 152.273L309.807 152.612L309.637 156.517L320.503 157.026L319.484 179.776L309.807 179.437L309.977 177.569L300.809 177.23L300.978 173.834L298.941 173.664L299.79 152.273Z" stroke="var(--stroke-0, #DFDFDD)" stroke-width="0.947139"/>
<path id="Vector_71" d="M426.105 354.138L449.874 355.326L463.796 356.005L462.947 371.285L448.685 370.606L448.516 373.832L425.256 372.643L425.765 360.419L425.935 359.401L426.105 354.138Z" stroke="var(--stroke-0, #DFDFDD)" stroke-width="0.947139"/>
<path id="Vector_72" d="M500.128 271.626L508.278 271.966L507.938 279.266V281.304L510.824 281.473L510.655 288.944L489.263 288.095L489.602 277.738L497.072 278.078L496.903 281.134H499.789L500.128 271.626Z" stroke="var(--stroke-0, #DFDFDD)" stroke-width="0.947139"/>
<path id="Vector_73" d="M432.896 322.898L465.154 324.426L464.475 341.234L463.796 356.005L449.874 355.326L450.044 353.798L430.35 352.779L431.708 322.898H432.896Z" stroke="var(--stroke-0, #DFDFDD)" stroke-width="0.947139"/>
<path id="Vector_74" d="M549.703 315.768L572.622 316.448V319.334L570.076 319.164L569.736 327.144L563.794 326.974V325.276L553.098 324.767V321.711L549.363 321.541L549.703 315.768Z" stroke="var(--stroke-0, #DFDFDD)" stroke-width="0.947139"/>
<path id="Vector_75" d="M533.404 424.086L598.259 426.803L597.071 500.316L565.492 499.977L543.251 499.128L542.912 509.824L529.839 509.484L533.404 424.086Z" stroke="var(--stroke-0, #DFDFDD)" stroke-width="0.947139"/>
<path id="Vector_76" d="M476.189 221.371L490.45 222.22L490.281 225.616L489.771 232.577L486.885 232.407L486.376 240.556L478.566 240.047L478.906 231.898L475.51 231.728L476.189 221.371Z" stroke="var(--stroke-0, #DFDFDD)" stroke-width="0.947139"/>
<path id="Vector_77" d="M503.693 222.391L511.503 222.56L511.163 239.368L510.994 240.387L503.014 240.217L503.184 233.426L494.865 233.256L495.034 223.239L503.693 223.409V222.391Z" stroke="var(--stroke-0, #DFDFDD)" stroke-width="0.947139"/>
<path id="Vector_78" d="M322.031 421.879L334.255 422.388L333.746 438.178L334.765 438.857L334.595 443.611L319.824 443.101L320.673 423.577L321.862 423.747L322.031 421.879Z" stroke="var(--stroke-0, #DFDFDD)" stroke-width="0.947139"/>
<path id="Vector_79" d="M439.517 219.334L451.232 219.844L451.062 223.239H451.741L450.892 241.066L437.82 240.387L438.669 222.56H439.348L439.517 219.334Z" stroke="var(--stroke-0, #DFDFDD)" stroke-width="0.947139"/>
<path id="Vector_80" d="M359.722 425.444L366.174 425.953V428.5H367.192L366.174 450.231L363.966 450.062V452.099L358.024 451.759L359.722 425.444Z" stroke="var(--stroke-0, #DFDFDD)" stroke-width="0.947139"/>
<path id="Vector_81" d="M501.486 253.63L509.466 253.97L509.296 259.912L509.126 268.401L501.147 268.231L501.316 264.835L492.827 264.496L492.997 257.195L501.316 257.365L501.486 253.63Z" stroke="var(--stroke-0, #DFDFDD)" stroke-width="0.947139"/>
<path id="Vector_82" d="M245.632 443.44L252.083 443.78L251.235 462.285L260.403 462.625L259.723 476.886L246.99 476.377L246.82 481.98H245.632V443.44Z" stroke="var(--stroke-0, #DFDFDD)" stroke-width="0.947139"/>
<path id="Vector_83" d="M245.632 48.7077L260.912 49.3869L260.742 50.066L263.968 50.2357L263.459 59.913L261.421 61.441L260.233 61.6108L260.063 66.025L245.632 65.3459V48.7077Z" stroke="var(--stroke-0, #DFDFDD)" stroke-width="0.947139"/>
<path id="Vector_84" d="M455.816 99.6412L500.977 100.49L499.619 170.608L445.799 171.117L446.988 113.393L447.327 103.716L455.646 104.225L455.816 99.6412Z" stroke="var(--stroke-0, #DFDFDD)" stroke-width="0.947139"/>
<path id="Vector_85" d="M358.194 455.495L374.493 456.344L374.153 461.607H377.209L377.039 468.738L369.909 468.398V467.04L357.685 466.361L358.194 455.495Z" stroke="var(--stroke-0, #DFDFDD)" stroke-width="0.947139"/>
<path id="Vector_86" d="M554.117 120.694L591.468 122.222L590.958 136.483L590.788 139.199L553.437 137.671V136.653L554.117 120.694Z" stroke="var(--stroke-0, #DFDFDD)" stroke-width="0.947139"/>
<path id="Vector_87" d="M493.337 292.338L508.277 292.508L508.107 297.941V304.223L487.734 304.053V296.074L493.337 296.243V292.338Z" stroke="var(--stroke-0, #DFDFDD)" stroke-width="0.947139"/>
<path id="Vector_88" d="M350.215 527.82L379.246 528.839L378.567 543.61L347.159 541.742L347.838 532.235L350.215 532.404V527.82Z" stroke="var(--stroke-0, #DFDFDD)" stroke-width="0.947139"/>
<path id="Vector_89" d="M287.906 79.9471L305.224 81.4751V81.9845L302.337 113.393L285.02 111.865L287.906 79.9471Z" stroke="var(--stroke-0, #DFDFDD)" stroke-width="0.947139"/>
<path id="Vector_90" d="M550.213 291.49L567.7 292.17L567.36 303.884L549.703 303.205L550.043 296.074L550.213 291.49Z" stroke="var(--stroke-0, #DFDFDD)" stroke-width="0.947139"/>
<path id="Vector_91" d="M547.155 334.273L564.473 335.292L564.133 341.574L563.794 346.667L546.646 345.648L547.155 334.273Z" stroke="var(--stroke-0, #DFDFDD)" stroke-width="0.947139"/>
<path id="Vector_92" d="M425.087 215.769L435.952 216.109L434.934 244.801L424.068 244.292L425.087 215.769Z" stroke="var(--stroke-0, #DFDFDD)" stroke-width="0.947139"/>
<path id="Vector_93" d="M338.5 425.444L352.591 426.293L351.233 448.364L336.972 447.515L338.5 425.444Z" stroke="var(--stroke-0, #DFDFDD)" stroke-width="0.947139"/>
<path id="Vector_94" d="M294.698 475.699L314.392 476.717L312.864 508.975L293.17 507.956L294.698 475.699Z" stroke="var(--stroke-0, #DFDFDD)" stroke-width="0.947139"/>
<path id="Vector_95" d="M433.744 306.77L466.002 308.298L465.153 324.427L432.895 322.899L433.744 306.77Z" stroke="var(--stroke-0, #DFDFDD)" stroke-width="0.947139"/>
<path id="Vector_96" d="M296.055 421.029L306.921 421.369L306.412 440.893L295.376 440.723L296.055 421.029Z" stroke="var(--stroke-0, #DFDFDD)" stroke-width="0.947139"/>
<path id="Vector_97" d="M355.308 546.326L379.416 547.175L378.907 558.041L355.138 557.192L355.308 546.326Z" stroke="var(--stroke-0, #DFDFDD)" stroke-width="0.947139"/>
<path id="Vector_98" d="M351.233 562.964L351.063 568.906H346.649V562.964H351.233Z" stroke="var(--stroke-0, #DFDFDD)" stroke-width="0.947139"/>
<path id="Vector_99" d="M454.457 462.626L461.079 463.135L460.569 469.756L453.948 469.417L454.457 462.626Z" stroke="var(--stroke-0, #DFDFDD)" stroke-width="0.947139"/>
<path id="Vector_100" d="M297.244 459.569L301.319 459.739L300.979 465.342L296.735 465.002L297.244 459.569Z" stroke="var(--stroke-0, #DFDFDD)" stroke-width="0.947139"/>
<path id="Vector_101" d="M263.289 542.081L269.231 542.42L268.721 552.946L262.779 552.607L263.289 542.081Z" stroke="var(--stroke-0, #DFDFDD)" stroke-width="0.947139"/>
</g>
</svg>
