<svg preserveAspectRatio="none" width="100%" height="100%" overflow="visible" style="display: block;" viewBox="0 0 1435.47 1397.59" fill="none" xmlns="http://www.w3.org/2000/svg">
<g id="road-minor-case">
<path id="Vector" d="M41.0861 4.4018L27.3341 3.55292L19.3546 3.04359M289.81 11.0231L275.209 10.0045L271.644 11.1929L268.078 12.2116L264.683 19.0027L263.494 52.9581L261.118 57.7119L256.024 57.8817M725.798 70.4452L714.932 69.7661H712.895L702.369 69.2567M696.936 205.418L706.443 205.758L709.499 206.097H713.744M508.992 273.159L510.181 252.786L510.351 250.07M490.147 193.873L502.032 194.552H504.408M420.538 269.254L421.218 250.239L422.406 214.416L391.337 213.228L390.148 248.881L389.299 267.896M704.915 614.751L704.746 625.617L702.708 663.477L687.938 662.798L678.77 662.289M474.697 525.618L461.794 524.939L448.552 524.6M233.444 596.246L233.953 584.531L234.123 582.663L234.462 572.816M252.968 533.767H254.836L256.534 533.937L267.229 534.277M268.588 501.68L279.284 502.189L325.293 503.038L336.838 503.717H339.215M255.345 458.896L257.552 459.065H259.59L270.455 459.235M85.2282 476.213L30.3901 474.345L28.183 474.176L19.8639 474.006M0 625.957H0.509332L5.09332 626.636L12.7333 626.466M0 686.737H0.679109L10.3564 687.076M0 683.002H0.679109L10.5262 683.172" stroke="var(--stroke-0, #E8EDEB)" stroke-width="6.09956"/>
<path id="Vector_2" d="M1060.09 640.217L1059.92 652.441L1040.06 651.423L1031.91 652.272L1031.4 668.91L1030.38 695.735V699.3" stroke="var(--stroke-0, #E8EDEB)" stroke-width="6.09956"/>
<path id="Vector_3" d="M799.482 42.9407L756.867 40.5638L755.17 71.633L725.798 70.4446M789.974 138.695V114.247L791.842 86.2339M791.842 86.2339L793.37 58.3904L813.913 59.2393L813.064 86.913L791.842 86.2339ZM766.715 142.6L771.129 61.1068M713.744 206.097L725.798 206.776M725.798 206.776L756.358 207.455L753.981 256.69L723.761 254.993L725.798 206.776ZM772.487 175.537L851.433 179.611M1401.51 495.907L1395.91 495.567M1395.91 495.567L1351.77 491.832L1346.67 496.586L1345.49 521.373L1394.72 523.75L1395.91 495.567ZM990.651 519.166L962.468 517.638M765.187 529.353L739.041 528.674M765.187 529.353L765.526 520.015M765.187 529.353L762.47 586.907M739.041 528.674L712.556 527.825M739.041 528.674L737.004 586.398M737.004 586.398L762.47 586.907M737.004 586.398L711.028 585.889L713.065 508.47M762.47 586.907H764.507L857.715 592.51L861.281 519.336L765.526 520.015M713.065 508.47L766.035 511.017L765.526 520.015M713.065 508.47L713.574 468.233L715.272 412.546L717.14 361.613L707.123 361.443M825.288 634.105L822.232 699.3M792.69 687.925L795.067 635.294M848.038 698.281V699.3" stroke="var(--stroke-0, #E8EDEB)" stroke-width="6.09956"/>
<path id="Vector_4" d="M636.835 1097.6L474.358 1089.96M154.158 1050.4L181.662 1051.59L182.171 1043.44" stroke="var(--stroke-0, #E8EDEB)" stroke-width="6.09956"/>
<path id="Vector_5" d="M474.358 1089.96L471.981 1089.79L461.625 1089.28L450.759 1088.77M658.906 1098.62L648.041 1097.94L643.117 1097.77L636.835 1097.6" stroke="var(--stroke-0, #E8EDEB)" stroke-width="6.09956"/>
<path id="Vector_6" d="M517.821 909.144L469.944 907.277H469.095L458.229 906.937" stroke="var(--stroke-0, #E8EDEB)" stroke-width="6.09956"/>
<path id="Vector_7" d="M571.98 910.843L563.661 910.503L529.196 909.485L517.821 909.145" stroke="var(--stroke-0, #E8EDEB)" stroke-width="6.09956"/>
<path id="Vector_8" d="M521.726 816.956L521.386 825.614L519.689 863.305L518.33 899.128L517.821 909.145" stroke="var(--stroke-0, #E8EDEB)" stroke-width="6.09956"/>
<path id="Vector_9" d="M349.062 819.842L348.214 833.933M348.214 833.933L346.686 859.4L278.944 856.174L279.793 830.877L348.214 833.933ZM737.852 763.136L738.871 736.651M738.871 710.166L685.901 708.468L677.072 708.128M589.807 999.296L616.462 1000.82M616.462 1000.82L634.967 1002.01L636.156 962.624L637.684 913.728L639.551 864.663L636.156 858.211L632.93 852.269L621.895 864.833L620.536 912.88L616.462 1000.82ZM473.17 933.083L492.524 933.932M502.711 1189.45L458.059 1187.58L446.515 1186.9M670.111 1123.74L738.871 1125.95M669.432 1150.57L738.871 1153.11M666.546 1206.59L677.582 1207.1M677.582 1207.1L678.43 1178.58M677.582 1207.1L677.242 1223.91M566.717 1239.53L566.208 1249.38L559.586 1326.63L563.831 1331.89L572.829 1331.72L580.808 1326.97L580.639 1293.18L582.506 1256.34L582.846 1250.23L583.355 1240.21M596.258 1188.6L595.579 1225.44M615.443 1188.6L614.764 1226.29M441.421 1311.69L452.796 1312.03L504.409 1313.72M505.258 1290.8L535.138 1291.48M504.069 1321.87L537.006 1322.72M525.97 1238L526.14 1225.27L522.914 1214.91L518.5 1210.16L519.01 1163.13M369.775 1391.99L372.492 1316.95M369.775 1391.99L422.576 1394.54H426.141M369.775 1391.99L345.837 1390.97M346.006 1367.54L348.383 1316.1L348.044 1278.58L342.611 1257.19L344.648 1239.19L345.497 1229.68M346.006 1367.54L303.902 1366.52M346.006 1367.54L345.667 1382.48M303.902 1366.52L281.831 1366.02M303.902 1366.52L304.411 1314.4M281.831 1366.02L247.705 1365.17M281.831 1366.02L282 1346.66L250.422 1346.15M323.935 1346.49L325.463 1315.25L327.501 1245.3M246.177 1278.41L258.911 1279.26M258.911 1279.26L286.245 1280.62M258.911 1279.26L259.76 1248.36L286.584 1249.04M345.667 1382.48L247.366 1379.77M345.667 1382.48L345.837 1390.97M345.837 1390.97L345.497 1394.71M738.871 1388.09L714.763 1387.75L714.423 1394.71M738.871 1097.94L731.741 1097.43L732.25 1088.77L726.477 1088.6L728.345 1052.27H734.457M734.457 1052.27L738.871 1052.44M734.457 1052.27L734.287 1050.23" stroke="var(--stroke-0, #E8EDEB)" stroke-width="6.09956"/>
<path id="Vector_10" d="M663.999 962.964H650.417L636.156 962.625M657.887 1123.23L667.565 1123.57L670.111 1123.74M327.501 1245.3L327.671 1238.51L327.84 1228.84M247.366 1379.77L242.273 1379.43L231.067 1378.92M734.627 1033.25L734.287 1043.95V1050.23M720.196 989.11L719.007 1018.99L718.328 1032.4" stroke="var(--stroke-0, #E8EDEB)" stroke-width="6.09956"/>
<path id="Vector_11" d="M703.048 655.837L702.708 663.477L687.938 662.798L678.77 662.289M263.155 926.292H260.099L258.741 926.123L250.082 925.953M262.306 951.25L259.08 951.08H257.552L248.894 950.91M349.232 810.165L349.062 819.842M339.894 809.655L340.573 796.413L341.422 779.265M257.382 758.892L267.909 759.232L326.991 760.76M632.93 852.27L633.948 830.878V828.501L634.288 821.71M642.947 822.049L642.777 828.84L642.607 831.217L642.098 843.102L641.419 853.288L636.156 858.212M457.21 932.574L467.736 932.914L473.169 933.084M458.738 897.6L445.835 897.091L443.968 896.921M411.54 1142.59H405.258M368.587 1141.23L377.924 1141.74M448.382 1143.78L436.667 1143.44L432.762 1143.27M433.102 1136.31H437.007L448.721 1136.65M656.699 1150.23L666.376 1150.57H669.432M614.764 1226.29V1241.4M595.579 1225.44V1227.82L595.239 1240.72M654.322 1205.92L664.339 1206.42L666.546 1206.59M404.07 1232.23L403.391 1241.74L401.523 1276.71M246.177 1278.41L243.291 1278.24L235.142 1277.9M355.514 1230.02L355.683 1215.93L356.023 1209.31M243.121 1094.03L251.61 1094.37H253.478L255.345 1094.54M243.291 1091.83L251.78 1092.33L253.647 1092.5H255.515M214.938 1053.96L231.746 1054.47H234.802L244.649 1054.98M254.496 1118.14L252.629 1117.97L251.44 1118.14L242.102 1117.97M239.895 1161.6L227.671 1161.09L187.774 1159.91M1.18844 1220.86H0M0 683.002H0.679109L10.5262 683.171M0 686.737H0.679109L10.3564 687.076M725.458 802.185L725.289 812.542L725.119 814.409L724.44 825.614" stroke="var(--stroke-0, #E8EDEB)" stroke-width="6.09956"/>
<path id="Vector_12" d="M567.396 1025.61L567.736 1014.58L571.641 918.143L571.98 910.843V907.447L573.848 864.833L575.206 828.161L575.545 819.163" stroke="var(--stroke-0, #E8EDEB)" stroke-width="6.09956"/>
<path id="Vector_13" d="M881.994 743.442H892.69L896.764 743.612L912.893 743.782" stroke="var(--stroke-0, #E8EDEB)" stroke-width="6.09956"/>
<path id="Vector_14" d="M1031.74 655.837L1031.4 668.91L1030.38 695.735V700.998" stroke="var(--stroke-0, #E8EDEB)" stroke-width="6.09956"/>
<path id="Vector_15" d="M792.691 687.925L794.219 655.837M737.852 763.136L739.89 710.166L695.408 708.808M824.269 655.837L821.553 712.713L787.937 711.354M848.038 698.281L847.529 741.744L818.497 740.726M818.497 740.726L796.426 740.047M818.497 740.726L817.648 768.23M817.648 768.23L816.799 795.055M817.648 768.23L794.728 767.381M817.648 768.23L862.639 770.267M816.799 795.055L816.459 807.279M816.799 795.055L794.898 793.866M816.799 795.055L862.299 797.771M770.11 756.515L768.752 773.832L761.282 779.605L758.565 792.847M823.42 845.988L822.911 859.57M822.911 859.57L821.213 920.86M822.911 859.57L845.152 860.249L842.945 921.708L821.213 920.86M821.213 920.86L800.67 922.048L792.521 920.18M792.521 920.18L785.39 918.652L769.431 917.124L762.47 923.576L760.433 934.781L763.828 943.61L771.638 945.477L780.127 941.233L785.22 932.744L786.239 926.123L792.521 920.18ZM942.264 917.124L944.811 879.094M870.618 1008.63L881.654 1009.14L960.431 1012.2L960.6 992.506L978.087 993.694L989.972 994.882M998.8 780.114L1009.5 780.454L1066.37 782.151L1068.92 787.584L1067.56 827.991L1066.71 839.536M1237.85 1046.83L1238.53 1036.14L1240.73 999.636L1299.82 1004.39L1297.95 1038.85L1297.44 1048.7M1233.94 1063.98L1242.26 1067.72L1241.07 1091.83L1223.42 1090.81L1224.43 1067.04L1233.94 1063.98ZM1233.94 1063.98L1234.28 1055.32L1234.45 1053.29L1234.79 1046.66M1233.43 1322.38L1233.09 1343.1M1233.43 1322.38L1191.67 1319.84L1193.03 1292.5M1233.43 1322.38L1234.28 1293.18L1193.03 1292.5M1193.2 1260.75V1289.62L1193.03 1292.5M1080.12 1043.95L1079.95 1055.49L1077.58 1101.33L1076.39 1142.25L1075.2 1179.26L1075.03 1189.79L991.5 1186.39L980.804 1186.05M919.005 1252.26L919.175 1241.4L919.344 1236.98L921.212 1166.53V1137.33L921.042 1133.08L922.231 1129.35L925.626 1126.8L929.361 1125.95L932.078 1125.44H940.227L969.259 1126.29L972.145 1126.46L983.52 1127.48M734.457 1052.27L734.287 1050.23M734.457 1052.27L745.323 1052.78L743.625 1098.28L731.74 1097.43L732.25 1088.77L726.477 1088.6L728.345 1052.27H734.457ZM695.408 1124.59L750.756 1126.29M695.408 1151.42L749.907 1153.45M739.72 1394.71L740.06 1388.09L714.763 1387.75L714.423 1394.71M1434.28 1200.82L1411.19 1200.31" stroke="var(--stroke-0, #E8EDEB)" stroke-width="6.09956"/>
<path id="Vector_16" d="M720.195 989.11L719.007 1018.99L718.328 1032.4M995.234 879.434L982.501 878.415L960.091 877.227L944.811 879.095M1411.19 1200.31L1399.98 1199.46L1393.02 1198.96M734.626 1033.25L734.287 1043.95V1050.23" stroke="var(--stroke-0, #E8EDEB)" stroke-width="6.09956"/>
<path id="Vector_17" d="M703.048 655.837L702.709 663.477L695.408 663.138M816.459 807.279L816.29 816.446L816.12 818.314L815.78 829.35M823.25 829.689L823.59 839.197L823.42 845.988M725.459 802.185L725.289 812.542L725.119 814.409L724.44 825.614M758.565 792.847L757.716 814.07L757.037 826.973M1059.75 655.837L1058.39 675.022L1056.52 693.698L1049.22 701.507L1034.45 701.168L1030.38 700.998L1013.4 700.489L1001.69 700.149M1394.89 1139.53L1384.02 1139.19L1353.3 1138.17L1352.45 1202.01L1381.31 1202.18L1392.85 1202.35M1321.38 1259.06L1321.21 1267.54L1320.19 1322.38V1339.02L1312.72 1347.51L1303.38 1354.47L1303.72 1369.41M775.543 1247.34L777.241 1235.12L777.75 1204.39L776.901 1190.47L778.769 1180.96L786.918 1159.23L796.765 1142.59L801.01 1133.08L803.726 1107.11L804.915 1104.22L807.631 1101.84L811.366 1100.48L815.271 1099.8L819.515 1099.63L838.7 1100.99L854.829 1103.2L867.902 1103.71M779.278 1087.75L780.976 1064.49L781.995 1045.99L783.183 1035.29M858.904 1311.18H821.892L793.879 1311.69L779.618 1311.35L779.278 1324.59M1396.08 1101.5H1411.7L1425.45 1103.37L1434.28 1107.11M1402.7 897.77L1411.53 899.128L1434.28 900.316" stroke="var(--stroke-0, #E8EDEB)" stroke-width="6.09956"/>
</g>
</svg>
