<svg preserveAspectRatio="none" width="100%" height="100%" overflow="visible" style="display: block;" viewBox="0 0 1007.14 1108.21" fill="none" xmlns="http://www.w3.org/2000/svg">
<g id="road-secondary-tertiary">
<path id="Vector" d="M555.949 412.521L557.307 375.509L558.495 341.724L558.665 337.988L559.174 327.123L559.854 314.05L563.419 240.876L563.758 233.915L564.438 214.221L567.663 119.825L569.022 73.9847L570.719 20.3351L571.059 4.88535" stroke="var(--stroke-0, white)" stroke-width="13.1565"/>
<path id="Vector_2" d="M897.371 3.86721L896.522 19.8263L896.353 22.2032L893.806 67.0244L893.466 72.1177L892.957 82.4741L892.278 99.1123L891.769 115.411L891.089 134.086L887.185 233.915L883.449 328.142L883.11 338.159L882.77 347.666L880.224 412.521" stroke="var(--stroke-0, white)" stroke-width="13.1565"/>
<path id="Vector_3" d="M762.399 412.521L765.455 344.61L765.624 334.084L767.492 324.237L768.511 287.395L770.548 231.878L774.113 128.823L774.792 109.978L776.83 61.5911L778.697 20.3352V18.8072L779.546 0.301438" stroke="var(--stroke-0, white)" stroke-width="13.1565"/>
<path id="Vector_4" d="M525.899 1107.93V1105.89L527.427 1060.73L528.955 1013.53L530.652 969.9L530.822 965.486L531.162 956.148L531.671 944.433L532.859 919.136L535.236 863.45L536.255 841.888L536.425 836.455L537.443 811.837L537.613 810.139L539.481 759.036L539.651 755.132L540.16 742.738L540.839 731.363L541.009 727.628L542.537 676.185L545.253 597.918L548.479 546.306L548.988 536.628L550.007 520.669L555.61 421.349L557.307 375.51L557.477 369.058" stroke="var(--stroke-0, white)" stroke-width="13.1565"/>
<path id="Vector_5" d="M9.26687 512.859L26.4144 513.708L120.301 518.122L133.883 518.801L145.598 519.65L199.587 521.687L218.432 522.876L227.77 523.385L244.578 523.555L252.218 523.894L323.864 526.95L327.769 527.12L340.672 527.63L353.066 528.139L362.913 528.648L400.264 530.176L443.897 532.044L454.083 532.383L512.826 534.93L521.485 535.27L535.237 535.779L548.989 536.628L559.345 537.137L602.978 538.835L617.409 539.514" stroke="var(--stroke-0, white)" stroke-width="13.1565"/>
<path id="Vector_6" d="M0.268277 721.515L16.9065 722.194L45.7686 723.553L48.3153 723.722L64.1045 724.401L111.812 726.439L125.055 727.118L136.26 727.627L315.205 734.588L319.11 734.758L332.013 735.267L344.577 735.607L348.142 735.776L445.934 738.832L523.013 742.058L526.408 742.228L540.16 742.737L550.686 743.247L554.591 743.416L596.866 745.624L613.164 746.472L617.409 746.642" stroke="var(--stroke-0, white)" stroke-width="13.1565"/>
<path id="Vector_7" d="M881.922 369.058L880.224 413.37L878.696 454.965L877.338 493.335L875.81 537.817L875.301 549.871L874.961 559.888L873.773 592.655L868.51 708.103L866.982 745.624L866.473 755.471L865.624 766.676L862.058 840.699L860.021 881.106L859.342 899.273L857.305 956.657L856.795 966.674L856.625 976.351L851.193 1107.93" stroke="var(--stroke-0, white)" stroke-width="13.1565"/>
<path id="Vector_8" d="M733.876 1107.93L737.441 1024.4L739.139 972.956L739.988 963.618L740.667 954.111L746.44 816.931L747.798 766.167L747.968 762.262V752.076L748.307 740.191L748.647 736.626L749.156 721.855L753.57 623.045L756.117 556.153L756.796 545.117L757.305 533.063L760.531 456.663L764.436 369.058" stroke="var(--stroke-0, white)" stroke-width="13.1565"/>
<path id="Vector_9" d="M733.876 1107.93L737.442 1024.4L739.139 972.956L739.988 963.618L740.667 954.11L746.44 816.93L747.798 766.167L747.968 762.262V752.075L748.307 740.191L748.647 736.626L749.156 721.855L753.57 623.045L756.117 556.152L756.796 545.117L757.305 533.063L760.531 456.663L761.507 434.762L762.484 412.86L764.436 369.058" stroke="var(--stroke-0, white)" stroke-width="13.1565"/>
<path id="Vector_10" d="M573.945 537.647L602.977 538.836L635.574 540.194L694.317 542.571L701.787 542.91L743.553 544.778L756.795 545.118L768.34 545.627L862.906 549.362L875.3 549.871L884.468 550.381L945.248 552.758L996.351 554.795L1006.71 555.474" stroke="var(--stroke-0, white)" stroke-width="13.1565"/>
</g>
</svg>
